<?xml version="1.0" encoding="UTF-8" standalone="no"?>
<!-- Created with Inkscape (http://www.inkscape.org/) -->
<svg
   xmlns:dc="http://purl.org/dc/elements/1.1/"
   xmlns:cc="http://web.resource.org/cc/"
   xmlns:rdf="http://www.w3.org/1999/02/22-rdf-syntax-ns#"
   xmlns:svg="http://www.w3.org/2000/svg"
   xmlns="http://www.w3.org/2000/svg"
   xmlns:sodipodi="http://sodipodi.sourceforge.net/DTD/sodipodi-0.dtd"
   xmlns:inkscape="http://www.inkscape.org/namespaces/inkscape"
   width="744.09448819"
   height="1052.3622047"
   id="svg2"
   sodipodi:version="0.32"
   inkscape:version="0.45.1"
   sodipodi:docbase="C:\Documents and Settings\Reuben\Desktop"
   sodipodi:docname="hihi.svg"
   inkscape:output_extension="org.inkscape.output.svg.inkscape">
  <defs
     id="defs4" />
  <sodipodi:namedview
     id="base"
     pagecolor="#ffffff"
     bordercolor="#666666"
     borderopacity="1.0"
     gridtolerance="10000"
     guidetolerance="10"
     objecttolerance="10"
     inkscape:pageopacity="0.0"
     inkscape:pageshadow="2"
     inkscape:zoom="0.35"
     inkscape:cx="680.06883"
     inkscape:cy="609.58109"
     inkscape:document-units="px"
     inkscape:current-layer="layer1"
     showgrid="true"
     inkscape:grid-points="true"
     inkscape:window-width="748"
     inkscape:window-height="578"
     inkscape:window-x="132"
     inkscape:window-y="114" />
  <metadata
     id="metadata7">
    <rdf:RDF>
      <cc:Work
         rdf:about="">
        <dc:format>image/svg+xml</dc:format>
        <dc:type
           rdf:resource="http://purl.org/dc/dcmitype/StillImage" />
      </cc:Work>
    </rdf:RDF>
  </metadata>
  <g
     inkscape:label="Layer 1"
     inkscape:groupmode="layer"
     id="layer1">
    <path
       style="opacity:1;color:#000000;fill:#ffff00;fill-opacity:1;fill-rule:nonzero;stroke:none;stroke-width:2;stroke-linecap:butt;stroke-linejoin:miter;marker:none;marker-start:none;marker-mid:none;marker-end:none;stroke-miterlimit:4;stroke-dasharray:none;stroke-dashoffset:0;stroke-opacity:1;visibility:visible;display:inline;overflow:visible;enable-background:accumulate"
       d="M 280,252.36217 L 280,292.36217 L 200,292.36217 L 200,332.36217 L 160,332.36217 L 160,412.36217 L 120,412.36217 L 120,612.36217 L 160,612.36217 L 160,692.36217 L 200,692.36217 L 200,732.36217 L 280,732.36217 L 280,772.36217 L 480,772.36217 L 480,732.36217 L 560,732.36217 L 560,692.36217 L 600,692.36217 L 600,652.36217 L 640,652.36217 L 640,412.36217 L 600,412.36217 L 600,332.36217 L 560,332.36217 L 560,292.36217 L 480,292.36217 L 480,252.36217 L 280,252.36217 z "
       id="path3367" />
    <path
       id="path3346"
       d="M 280,212.36218 L 280,252.36218 L 480,252.36218 L 480,212.36218 L 280,212.36218 z M 480,252.36218 L 480,292.36217 L 560,292.36217 L 560,252.36218 L 480,252.36218 z M 560,292.36217 L 560,332.36217 L 600,332.36217 L 600,292.36217 L 560,292.36217 z M 600,332.36217 L 600,412.36217 L 640,412.36217 L 640,332.36217 L 600,332.36217 z M 640,412.36217 L 640,652.36217 L 680,652.36217 L 680,412.36217 L 640,412.36217 z M 640,652.36217 L 600,652.36217 L 600,692.36217 L 640,692.36217 L 640,652.36217 z M 600,692.36217 L 560,692.36217 L 560,732.36217 L 600,732.36217 L 600,692.36217 z M 560,732.36217 L 480,732.36217 L 480,772.36217 L 560,772.36217 L 560,732.36217 z M 480,772.36217 L 280,772.36217 L 280,812.36217 L 480,812.36217 L 480,772.36217 z M 280,772.36217 L 280,732.36217 L 200,732.36217 L 200,772.36217 L 280,772.36217 z M 200,732.36217 L 200,692.36217 L 160,692.36217 L 160,732.36217 L 200,732.36217 z M 160,692.36217 L 160,612.36217 L 120,612.36217 L 120,692.36217 L 160,692.36217 z M 120,612.36217 L 120,412.36217 L 80,412.36217 L 80,612.36217 L 120,612.36217 z M 120,412.36217 L 160,412.36217 L 160,332.36217 L 120,332.36217 L 120,412.36217 z M 160,332.36217 L 200,332.36217 L 200,292.36217 L 160,292.36217 L 160,332.36217 z M 200,292.36217 L 280,292.36217 L 280,252.36218 L 200,252.36218 L 200,292.36217 z M 320,332.36217 L 320,372.36217 L 400,372.36217 L 400,332.36217 L 320,332.36217 z M 320,372.36217 L 280,372.36217 L 280,412.36217 L 320,412.36217 L 320,372.36217 z M 440,332.36217 L 440,372.36217 L 520,372.36217 L 520,332.36217 L 440,332.36217 z M 520,372.36217 L 520,412.36217 L 560,412.36217 L 560,372.36217 L 520,372.36217 z M 200,452.36217 L 200,492.36217 L 200,612.36217 L 240,612.36217 L 240,492.36217 L 280,492.36217 L 280,452.36217 L 200,452.36217 z M 280,492.36217 L 280,532.36217 L 320,532.36217 L 320,652.36217 L 280,652.36217 L 280,692.36217 L 520,692.36217 L 520,652.36217 L 480,652.36217 L 480,532.36217 L 560,532.36217 L 560,612.36217 L 600,612.36217 L 600,532.36217 L 600,492.36217 L 280,492.36217 z M 560,612.36217 L 520,612.36217 L 520,652.36217 L 560,652.36217 L 560,612.36217 z M 280,652.36217 L 280,612.36217 L 240,612.36217 L 240,652.36217 L 280,652.36217 z M 360,532.36217 L 440,532.36217 L 440,652.36217 L 360,652.36217 L 360,532.36217 z "
       style="opacity:1;color:#000000;fill:#000000;fill-opacity:1;fill-rule:nonzero;stroke:none;stroke-width:2;stroke-linecap:butt;stroke-linejoin:miter;marker:none;marker-start:none;marker-mid:none;marker-end:none;stroke-miterlimit:4;stroke-dasharray:none;stroke-dashoffset:0;stroke-opacity:1;visibility:visible;display:inline;overflow:visible;enable-background:accumulate" />
    <rect
       style="opacity:1;color:#000000;fill:#ffffff;fill-opacity:1;fill-rule:nonzero;stroke:none;stroke-width:2;stroke-linecap:butt;stroke-linejoin:miter;marker:none;marker-start:none;marker-mid:none;marker-end:none;stroke-miterlimit:4;stroke-dasharray:none;stroke-dashoffset:0;stroke-opacity:1;visibility:visible;display:inline;overflow:visible;enable-background:accumulate"
       id="rect3373"
       width="40"
       height="120"
       x="240"
       y="492.36218" />
    <rect
       style="opacity:1;color:#000000;fill:#ffffff;fill-opacity:1;fill-rule:nonzero;stroke:none;stroke-width:2;stroke-linecap:butt;stroke-linejoin:miter;marker:none;marker-start:none;marker-mid:none;marker-end:none;stroke-miterlimit:4;stroke-dasharray:none;stroke-dashoffset:0;stroke-opacity:1;visibility:visible;display:inline;overflow:visible;enable-background:accumulate"
       id="rect3375"
       width="40"
       height="120"
       x="280"
       y="532.36218" />
    <rect
       style="opacity:1;color:#000000;fill:#ffffff;fill-opacity:1;fill-rule:nonzero;stroke:none;stroke-width:2;stroke-linecap:butt;stroke-linejoin:miter;marker:none;marker-start:none;marker-mid:none;marker-end:none;stroke-miterlimit:4;stroke-dasharray:none;stroke-dashoffset:0;stroke-opacity:1;visibility:visible;display:inline;overflow:visible;enable-background:accumulate"
       id="rect3377"
       width="80"
       height="120"
       x="360"
       y="532.36218" />
    <rect
       style="opacity:1;color:#000000;fill:#ffffff;fill-opacity:1;fill-rule:nonzero;stroke:none;stroke-width:2;stroke-linecap:butt;stroke-linejoin:miter;marker:none;marker-start:none;marker-mid:none;marker-end:none;stroke-miterlimit:4;stroke-dasharray:none;stroke-dashoffset:0;stroke-opacity:1;visibility:visible;display:inline;overflow:visible;enable-background:accumulate"
       id="rect3379"
       width="40"
       height="120"
       x="480"
       y="532.36218" />
    <rect
       style="opacity:1;color:#000000;fill:#ffffff;fill-opacity:1;fill-rule:nonzero;stroke:none;stroke-width:2;stroke-linecap:butt;stroke-linejoin:miter;marker:none;marker-start:none;marker-mid:none;marker-end:none;stroke-miterlimit:4;stroke-dasharray:none;stroke-dashoffset:0;stroke-opacity:1;visibility:visible;display:inline;overflow:visible;enable-background:accumulate"
       id="rect3381"
       width="40"
       height="80"
       x="520"
       y="532.36218" />
  </g>
</svg>
