<?xml version="1.0" encoding="UTF-8" standalone="no"?>
<!-- Created with Inkscape (http://www.inkscape.org/) -->
<svg
   xmlns:dc="http://purl.org/dc/elements/1.1/"
   xmlns:cc="http://web.resource.org/cc/"
   xmlns:rdf="http://www.w3.org/1999/02/22-rdf-syntax-ns#"
   xmlns:svg="http://www.w3.org/2000/svg"
   xmlns="http://www.w3.org/2000/svg"
   xmlns:sodipodi="http://sodipodi.sourceforge.net/DTD/sodipodi-0.dtd"
   xmlns:inkscape="http://www.inkscape.org/namespaces/inkscape"
   width="744.09448819"
   height="1052.3622047"
   id="svg2"
   sodipodi:version="0.32"
   inkscape:version="0.45.1"
   sodipodi:docbase="C:\Documents and Settings\Reuben\Desktop\pizmidi\winvst\GUI\MidiPadIcons"
   sodipodi:docname="7.svg"
   inkscape:output_extension="org.inkscape.output.svg.inkscape">
  <defs
     id="defs4" />
  <sodipodi:namedview
     id="base"
     pagecolor="#ffffff"
     bordercolor="#666666"
     borderopacity="1.0"
     gridtolerance="10000"
     guidetolerance="10"
     objecttolerance="10"
     inkscape:pageopacity="0.0"
     inkscape:pageshadow="2"
     inkscape:zoom="0.35"
     inkscape:cx="375"
     inkscape:cy="521.38488"
     inkscape:document-units="px"
     inkscape:current-layer="layer1"
     inkscape:window-width="748"
     inkscape:window-height="578"
     inkscape:window-x="154"
     inkscape:window-y="133" />
  <metadata
     id="metadata7">
    <rdf:RDF>
      <cc:Work
         rdf:about="">
        <dc:format>image/svg+xml</dc:format>
        <dc:type
           rdf:resource="http://purl.org/dc/dcmitype/StillImage" />
      </cc:Work>
    </rdf:RDF>
  </metadata>
  <g
     inkscape:label="Layer 1"
     inkscape:groupmode="layer"
     id="layer1">
    <path
       sodipodi:type="spiral"
       style="fill:none;fill-rule:evenodd;stroke:#000000;stroke-width:4.1;stroke-linecap:butt;stroke-linejoin:miter;stroke-opacity:1;stroke-miterlimit:4;stroke-dasharray:none"
       id="path2160"
       sodipodi:cx="408.57144"
       sodipodi:cy="403.79074"
       sodipodi:expansion="1"
       sodipodi:revolution="3"
       sodipodi:radius="51.507874"
       sodipodi:argument="-21.93565"
       sodipodi:t0="0"
       d="M 408.57144,403.79074 C 405.9929,403.64749 407.49238,400.24424 408.80954,399.50503 C 412.37895,397.50182 416.2704,400.88774 417.14287,404.26693 C 418.70351,410.31151 413.58752,415.76068 407.85715,416.64788 C 399.44761,417.9499 392.25718,410.90712 391.42859,402.83836 C 390.3242,392.08397 399.35712,383.10366 409.76192,382.36217 C 422.8553,381.42908 433.64551,392.47907 434.28573,405.21932 C 435.06111,420.64946 421.98024,433.2599 406.90477,433.79074 C 389.13885,434.41631 374.70212,419.29655 374.28573,401.88597 C 373.80499,381.78477 390.96871,365.51787 410.71431,365.21931 C 433.15051,364.88007 451.25022,384.09115 451.42858,406.1717 C 451.62867,430.94275 430.36785,450.87716 405.95238,450.9336 C 378.84659,450.99625 357.07608,427.68392 357.14287,400.93359" />
  </g>
</svg>
