<?xml version="1.0" encoding="UTF-8" standalone="no"?>
<!-- Created with Inkscape (http://www.inkscape.org/) -->
<svg
   xmlns:dc="http://purl.org/dc/elements/1.1/"
   xmlns:cc="http://web.resource.org/cc/"
   xmlns:rdf="http://www.w3.org/1999/02/22-rdf-syntax-ns#"
   xmlns:svg="http://www.w3.org/2000/svg"
   xmlns="http://www.w3.org/2000/svg"
   xmlns:sodipodi="http://sodipodi.sourceforge.net/DTD/sodipodi-0.dtd"
   xmlns:inkscape="http://www.inkscape.org/namespaces/inkscape"
   width="744.09448819"
   height="1052.3622047"
   id="svg2"
   sodipodi:version="0.32"
   inkscape:version="0.44.1"
   sodipodi:docbase="C:\Program Files\Vstplugins\_devs\PIZ\MidiPadIcons"
   sodipodi:docname="10.svg">
  <defs
     id="defs4" />
  <sodipodi:namedview
     id="base"
     pagecolor="#ffffff"
     bordercolor="#666666"
     borderopacity="1.0"
     gridtolerance="10000"
     guidetolerance="10"
     objecttolerance="10"
     inkscape:pageopacity="0.0"
     inkscape:pageshadow="2"
     inkscape:zoom="0.98994949"
     inkscape:cx="534.74013"
     inkscape:cy="634.23228"
     inkscape:document-units="px"
     inkscape:current-layer="layer1"
     inkscape:window-width="1280"
     inkscape:window-height="977"
     inkscape:window-x="-4"
     inkscape:window-y="-4" />
  <metadata
     id="metadata7">
    <rdf:RDF>
      <cc:Work
         rdf:about="">
        <dc:format>image/svg+xml</dc:format>
        <dc:type
           rdf:resource="http://purl.org/dc/dcmitype/StillImage" />
      </cc:Work>
    </rdf:RDF>
  </metadata>
  <g
     inkscape:label="Layer 1"
     inkscape:groupmode="layer"
     id="layer1">
    <path
       style="fill:black;fill-opacity:1;fill-rule:nonzero;stroke:none;stroke-width:15.8335743;stroke-linecap:round;stroke-miterlimit:4;stroke-dasharray:none;stroke-dashoffset:14;stroke-opacity:1"
       d="M 305.06254,194.03698 C 203.27858,194.03698 120.53574,276.80942 120.53574,378.59338 C 120.53574,480.37734 203.27858,563.1202 305.06254,563.12018 C 406.8465,563.12018 489.61896,480.37734 489.61894,378.59338 C 489.61894,276.80942 406.8465,194.03698 305.06254,194.03698 z M 305.06254,209.04662 C 398.73056,209.04662 474.6093,284.92537 474.6093,378.59338 C 474.60931,472.2614 398.73056,548.14014 305.06254,548.14014 C 211.39452,548.14015 135.51578,472.2614 135.51578,378.59338 C 135.51578,284.92537 211.39452,209.04662 305.06254,209.04662 z "
       id="path1874" />
    <path
       style="fill:black;fill-opacity:1;fill-rule:nonzero;stroke:none;stroke-width:14.04571318;stroke-linecap:round;stroke-miterlimit:4;stroke-dasharray:none;stroke-dashoffset:14;stroke-opacity:1"
       d="M 305.0625 245.53125 C 231.6189 245.53125 172.03125 305.15016 172.03125 378.59375 C 172.03125 452.03735 231.61889 511.625 305.0625 511.625 C 378.5061 511.625 438.12501 452.03737 438.125 378.59375 C 438.125 305.15015 378.5061 245.53125 305.0625 245.53125 z M 305.0625 299.84375 C 348.44899 299.84375 383.8125 335.20724 383.8125 378.59375 C 383.81251 421.98024 348.44899 457.34376 305.0625 457.34375 C 261.676 457.34376 226.3125 421.98023 226.3125 378.59375 C 226.3125 335.20725 261.676 299.84376 305.0625 299.84375 z M 305.0625 314.84375 C 269.79195 314.84375 241.3125 343.32319 241.3125 378.59375 C 241.3125 413.8643 269.79195 442.34377 305.0625 442.34375 C 340.33305 442.34375 368.81249 413.86429 368.8125 378.59375 C 368.8125 343.3232 340.33305 314.84375 305.0625 314.84375 z "
       id="path1876" />
  </g>
</svg>
