<?xml version="1.0" encoding="UTF-8" standalone="no"?>
<!-- Created with Inkscape (http://www.inkscape.org/) -->
<svg
   xmlns:dc="http://purl.org/dc/elements/1.1/"
   xmlns:cc="http://web.resource.org/cc/"
   xmlns:rdf="http://www.w3.org/1999/02/22-rdf-syntax-ns#"
   xmlns:svg="http://www.w3.org/2000/svg"
   xmlns="http://www.w3.org/2000/svg"
   xmlns:sodipodi="http://sodipodi.sourceforge.net/DTD/sodipodi-0.dtd"
   xmlns:inkscape="http://www.inkscape.org/namespaces/inkscape"
   width="744.09448819"
   height="1052.3622047"
   id="svg2"
   sodipodi:version="0.32"
   inkscape:version="0.44.1"
   sodipodi:docbase="C:\Program Files\Vstplugins\_devs\PIZ\MidiPadIcons"
   sodipodi:docname="12.svg">
  <defs
     id="defs4" />
  <sodipodi:namedview
     id="base"
     pagecolor="#ffffff"
     bordercolor="#666666"
     borderopacity="1.0"
     gridtolerance="10000"
     guidetolerance="10"
     objecttolerance="10"
     inkscape:pageopacity="0.0"
     inkscape:pageshadow="2"
     inkscape:zoom="1.4"
     inkscape:cx="223.35056"
     inkscape:cy="733.06431"
     inkscape:document-units="px"
     inkscape:current-layer="layer1"
     inkscape:window-width="1280"
     inkscape:window-height="977"
     inkscape:window-x="-4"
     inkscape:window-y="-4" />
  <metadata
     id="metadata7">
    <rdf:RDF>
      <cc:Work
         rdf:about="">
        <dc:format>image/svg+xml</dc:format>
        <dc:type
           rdf:resource="http://purl.org/dc/dcmitype/StillImage" />
      </cc:Work>
    </rdf:RDF>
  </metadata>
  <g
     inkscape:label="Layer 1"
     inkscape:groupmode="layer"
     id="layer1">
    <path
       style="fill:black;fill-opacity:1;fill-rule:nonzero;stroke:none;stroke-width:15;stroke-linecap:round;stroke-miterlimit:4;stroke-dashoffset:14;stroke-opacity:1"
       d="M 169.45021,230.90625 C 168.43031,230.91556 167.36979,231.02026 166.26271,231.28125 C 164.23965,231.75819 162.59645,232.71482 161.23146,233.8125 L 159.73146,233.3125 L 155.79396,239.03125 C 153.16843,242.8183 152.61203,246.17787 151.95021,248.28125 L 151.82521,248.625 L 151.76271,249 C 151.30352,251.42652 150.86034,253.88541 150.41896,256.375 L 150.13771,255.65625 L 149.32521,255 C 149.20835,254.87302 149.19222,254.93661 149.04396,254.75 C 148.55792,254.13824 147.73009,253.11946 146.01271,252.1875 C 144.73984,251.49676 142.99231,251.12873 141.32521,250.96875 L 141.32521,250.84375 L 134.23146,250.15625 L 134.23146,250.25 C 133.67193,250.19042 133.15551,250.08584 132.57521,250.09375 C 131.4129,250.1096 130.23379,250.24652 129.26271,250.53125 C 127.32057,251.10073 126.1963,251.90724 125.54396,252.40625 C 125.27775,252.60989 125.31354,252.57634 125.13771,252.6875 L 124.20021,253.125 L 122.98146,254.8125 C 121.36431,257.05974 120.96661,258.67795 120.73146,259.1875 L 120.73146,259.21875 L 120.70021,259.28125 C 119.56258,261.85294 119.11903,264.14095 118.73146,266.125 L 118.70021,266.125 C 118.67311,266.22859 118.69493,266.30336 118.66896,266.40625 C 118.66363,266.43363 118.64301,266.47278 118.63771,266.5 C 117.99165,269.0906 117.67585,271.47463 117.35646,273.5625 C 116.98395,275.9746 116.76449,278.24635 116.54396,280.375 L 116.54396,280.46875 L 116.51271,280.59375 C 116.3886,282.34798 116.24931,284.16927 116.13771,286.09375 L 116.13771,286.25 L 116.13771,286.4375 C 116.13649,287.09162 115.99324,288.09143 115.79396,289.28125 C 115.69507,289.28919 115.57699,289.31064 115.48146,289.3125 C 114.62056,289.20084 113.80725,289.50622 112.95021,289.59375 C 112.39036,289.85508 111.68524,290.0184 111.10646,290.1875 C 111.03269,290.19368 110.84854,290.23222 110.82521,290.25 C 110.79749,290.26027 110.8528,290.24152 110.29396,290.34375 C 109.56909,290.61219 108.74099,290.91525 108.07521,291.15625 C 107.32457,291.44217 106.60948,291.84902 105.88771,292.1875 C 105.15849,292.51613 104.14129,293.4266 103.73146,293.71875 C 102.84732,294.30974 102.24228,295.10402 101.54396,295.8125 C 100.84616,296.44028 100.42889,297.24254 99.887709,297.9375 C 99.371546,298.57555 99.034718,299.3218 98.637709,300 C 98.189926,300.62057 97.960581,301.28711 97.637709,301.90625 C 97.194911,302.71787 96.847201,303.5509 96.450209,304.375 C 96.18137,305.19663 95.878254,306.00228 95.575209,306.8125 C 95.272104,307.7157 95.000409,308.62223 94.731459,309.53125 C 94.366983,310.6275 94.109211,311.72866 93.856459,312.84375 C 93.697518,313.94001 93.556794,315.0289 93.387709,316.125 C 93.01285,317.57715 92.930902,319.09079 92.762709,320.5625 C 92.56053,322.1041 92.414617,323.64143 92.262709,325.1875 C 92.119634,326.7252 91.980509,328.24895 91.762709,329.78125 C 91.726116,330.05326 91.731777,330.32146 91.700209,330.59375 C 90.277725,339.0821 89.3909,347.56774 88.887709,356.03125 C 88.69364,359.35567 88.584729,362.67511 88.512709,366 C 87.874351,371.11717 87.305797,376.24695 86.887709,381.40625 C 86.282493,388.80262 86.204878,396.16934 86.387709,403.4375 C 86.476906,410.66167 87.507319,417.46969 88.387709,424.0625 L 88.418959,424.1875 L 88.418959,424.34375 C 88.601202,425.35151 88.837214,426.36226 89.043959,427.375 C 89.109574,427.60408 89.164321,427.83385 89.231459,428.0625 C 89.861191,430.08739 90.208798,432.16288 90.575209,434.21875 C 90.642221,434.51251 90.702045,434.79944 90.762709,435.09375 C 91.310165,436.34694 91.822072,437.62431 92.262709,438.90625 C 93.195449,441.06473 94.153036,443.21335 95.075209,445.375 C 96.179897,448.00751 97.101871,450.674 98.293959,453.28125 C 98.840467,454.75726 99.403347,456.24195 99.950209,457.71875 C 101.19347,459.78124 102.5259,461.79473 103.91896,463.78125 L 103.91896,463.8125 L 103.95021,463.8125 C 108.54487,470.26231 114.55924,475.50756 120.85646,480.03125 C 126.07823,483.77103 131.96924,486.44908 138.04396,488.40625 L 138.23146,488.53125 C 144.52323,493.07833 152.1314,495.23605 159.41896,496.0625 L 159.57521,496.0625 L 159.76271,496.09375 C 168.88161,496.83364 177.212,494.77152 184.29396,491.90625 L 184.41896,491.84375 L 184.51271,491.8125 C 186.76568,490.83865 189.01848,489.66631 191.13771,488.3125 C 193.31962,487.74985 195.32065,486.79296 196.70021,485.84375 L 197.23146,485.46875 L 197.66896,485.03125 C 199.27036,483.53933 200.92297,481.95572 202.51271,480.25 L 202.57521,480.1875 L 202.66896,480.09375 C 204.7372,477.74079 206.84189,475.3393 208.91896,472.84375 L 208.95021,472.78125 L 209.04396,472.6875 C 211.53576,469.52909 214.03199,466.32779 216.48146,463.0625 C 219.55687,458.97416 222.56585,454.83615 225.48146,450.59375 C 228.75327,445.8898 231.93831,441.18438 235.01271,436.375 C 238.05369,432.08708 240.37407,428.03618 242.73146,423.8125 L 242.76271,423.75 L 242.79396,423.6875 C 244.0759,421.28841 245.83874,418.24824 246.60646,414.34375 L 246.82521,414.25 C 246.85639,413.67743 246.88697,413.10479 246.91896,412.53125 C 246.97253,411.79854 247.02964,411.08102 247.07521,410.34375 C 247.07568,410.33339 247.07476,410.32287 247.07521,410.3125 C 246.894,409.90913 246.72766,409.49772 246.54396,409.09375 C 246.17645,407.9741 245.78322,406.86272 245.38771,405.75 C 245.03679,404.62934 244.75841,403.50143 244.45021,402.375 C 244.11205,401.14194 243.86911,399.89702 243.57521,398.65625 C 243.52551,398.33205 243.467,398.01068 243.41896,397.6875 C 243.29282,397.36854 243.16052,397.03109 243.04396,396.71875 C 242.22556,394.30681 241.53919,392.27902 241.13771,390.25 C 240.58423,387.31029 240.13678,384.56019 239.88771,381.875 C 239.61369,378.914 239.38307,376.08808 239.38771,373.375 C 239.42217,370.41674 239.50135,367.65184 239.76271,364.96875 L 239.76271,364.9375 L 239.76271,364.90625 C 240.01794,362.00559 240.26166,359.19308 240.63771,356.46875 C 240.9764,354.08091 241.34241,351.84793 241.76271,349.71875 C 241.76021,349.19694 241.75944,348.67429 241.73146,348.15625 C 241.74622,347.45563 241.74405,346.73177 241.76271,346.03125 C 241.77055,345.40633 241.83572,344.78154 241.79396,344.15625 C 241.81397,343.59926 241.81605,343.05396 241.85646,342.5 C 241.87241,342.03626 241.8762,341.58668 241.91896,341.125 C 241.8994,340.7162 241.89416,340.31307 241.85646,339.90625 C 241.85956,339.4818 241.96939,339.04651 241.85646,338.625 C 241.86321,338.17003 241.85918,337.70758 241.88771,337.25 C 241.89094,336.7895 241.81572,336.33142 241.88771,335.875 C 241.89433,335.47599 241.93484,335.08684 241.91896,334.6875 C 241.94107,334.34884 241.88032,333.99689 241.95021,333.65625 C 241.94498,333.36918 242.03581,333.08521 241.95021,332.78125 C 241.93524,332.43068 242.03142,332.06561 241.91896,331.71875 C 241.92457,331.31714 241.92494,330.93433 241.91896,330.53125 C 241.89108,330.22611 241.93075,329.92846 241.85646,329.625 C 241.8707,329.46104 241.73608,329.26279 241.88771,329.125 C 241.81442,328.88713 241.71414,328.67533 241.70021,328.53125 C 241.54714,328.20118 241.28271,327.55957 241.07521,327.15625 C 240.99519,326.87254 240.90066,326.58793 240.79396,326.3125 C 240.66083,325.90809 240.53037,325.39353 240.41896,325.03125 C 240.32215,324.69101 239.87052,323.93926 240.07521,323.90625 C 239.82947,323.61977 239.55528,323.36259 239.26271,323.09375 C 236.94427,320.96332 233.71679,319.90274 231.23146,319.5625 C 228.74612,319.22227 226.69136,319.28781 224.98146,319.46875 C 223.27157,319.6497 221.92205,319.95913 220.76271,320.125 L 219.57521,320.28125 C 219.35101,320.40903 219.11524,320.53565 218.88771,320.65625 C 218.48356,320.86869 218.16832,321.23311 217.82521,321.5 C 217.30187,321.83542 216.87523,322.26146 216.41896,322.625 C 215.91234,322.93194 215.45473,323.3348 214.98146,323.6875 C 214.57167,323.98951 214.12663,324.20701 213.70021,324.46875 C 213.42673,324.68539 213.22959,324.79504 212.57521,325.21875 C 212.78334,325.13284 211.97549,325.63304 211.76271,325.78125 C 211.75234,325.79096 211.75572,325.82423 211.79396,325.875 C 211.5073,326.23981 211.16666,326.62975 210.85646,327 C 210.81062,327.10173 210.47938,327.54844 210.32521,327.78125 C 210.30485,327.82533 210.29797,327.89857 210.26271,328 C 210.14008,328.2671 210.03503,328.54248 209.91896,328.8125 C 209.76748,329.4348 209.45367,329.99695 209.23146,330.59375 C 209.06568,331.11969 208.85606,331.63351 208.66896,332.15625 C 208.50792,332.70963 208.3378,333.2876 208.16896,333.84375 C 208.0688,334.5443 207.81623,335.19599 207.63771,335.875 C 207.53058,336.61444 207.28105,337.3335 207.10646,338.0625 C 206.86565,338.7585 206.77438,339.47412 206.60646,340.1875 C 206.41093,340.91704 206.30119,341.63804 206.13771,342.375 C 205.94292,343.08925 205.8829,343.8376 205.76271,344.5625 C 205.5484,345.48786 205.38834,346.41435 205.20021,347.34375 C 204.93794,348.13934 204.92513,348.99818 204.79396,349.8125 C 204.6515,350.86887 204.55087,351.91161 204.41896,352.96875 C 204.33084,354.1259 204.25109,355.28072 204.16896,356.4375 C 204.08876,357.83672 204.02821,359.25573 203.98146,360.65625 C 203.88473,362.0889 203.76842,363.50812 203.63771,364.9375 C 203.58464,366.23554 203.49352,367.54664 203.41896,368.84375 C 203.28625,369.99482 203.30379,371.1565 203.26271,372.3125 C 203.25914,373.37081 203.16806,374.41526 203.10646,375.46875 C 203.08551,376.40364 203.13581,377.31669 203.16896,378.25 C 203.37137,379.33617 203.37189,380.43649 203.45021,381.53125 C 203.51365,382.27417 203.70648,383.01872 203.82521,383.75 C 203.93306,384.45833 203.99041,385.16466 204.07521,385.875 C 204.25058,387.64557 203.28203,388.79183 202.48146,390.21875 C 201.72388,391.04914 200.80363,391.71773 199.95021,392.4375 C 198.84183,393.27577 197.82017,394.19727 196.76271,395.09375 C 195.31042,396.28388 193.78312,397.37032 192.26271,398.46875 C 190.63552,399.54219 189.01786,400.64836 187.38771,401.71875 C 185.83258,402.75548 184.46632,404.01575 183.04396,405.21875 C 181.52181,406.54802 180.03915,407.92121 178.57521,409.3125 C 177.17788,410.58347 175.95847,412.03711 174.70021,413.4375 C 173.51405,414.73464 172.42834,416.10122 171.32521,417.46875 C 170.37221,418.75145 169.5805,420.11693 168.79396,421.5 C 168.0493,422.79474 167.44093,424.15598 166.79396,425.5 C 166.23215,426.75106 165.79174,428.06539 165.29396,429.34375 C 164.85682,430.32851 164.49711,431.33995 164.10646,432.34375 C 163.40297,433.8575 162.89723,433.20007 161.29396,433.375 L 157.26271,431.9375 C 155.98125,430.86821 155.2755,431.26871 155.57521,429.5625 C 155.90532,428.43065 156.24119,427.27791 156.60646,426.15625 C 157.0979,424.7088 157.55254,423.27628 158.16896,421.875 C 158.88328,420.20005 159.59633,418.53225 160.41896,416.90625 C 161.44218,415.16769 162.39949,413.35824 163.66896,411.78125 C 164.86623,410.17722 166.052,408.57476 167.32521,407.03125 C 168.75283,405.39284 170.15661,403.75159 171.76271,402.28125 C 173.3665,400.73578 174.9375,399.13009 176.63771,397.6875 C 178.35152,396.27254 180.08695,394.90533 181.95021,393.6875 C 183.51366,392.63376 185.11315,391.59381 186.66896,390.53125 C 188.11265,389.52203 189.5538,388.53419 190.98146,387.5 C 192.22804,386.66031 193.48386,385.82624 194.76271,385.03125 C 194.84474,384.98653 194.95211,384.93086 195.04396,384.875 C 194.89157,384.05573 194.7442,383.23493 194.63771,382.40625 C 194.47213,381.19875 194.22269,380.00833 194.20021,378.78125 C 194.13472,377.63281 194.0197,376.46582 194.10646,375.3125 C 194.08524,374.23045 193.98995,373.14738 194.04396,372.0625 C 194.07149,370.85735 194.16724,369.67398 194.13771,368.46875 C 194.18498,367.09337 194.19956,365.71512 194.32521,364.34375 C 194.40889,362.90766 194.45956,361.46394 194.60646,360.03125 C 194.70118,358.62145 194.77208,357.19176 194.85646,355.78125 C 194.98274,354.43529 195.06927,353.07987 195.32521,351.75 C 195.4916,350.66884 195.6919,349.62144 195.79396,348.53125 C 195.99399,347.52782 196.15604,346.49706 196.38771,345.5 C 196.52858,344.74955 196.71761,344.00666 196.82521,343.25 C 197.00179,342.28935 197.14196,341.32003 197.38771,340.375 C 197.56363,339.58786 197.73592,338.81923 197.91896,338.03125 C 198.08369,337.3 198.31471,336.56376 198.41896,335.8125 C 198.64162,335.02036 198.83326,334.22015 199.07521,333.4375 C 199.27783,332.69869 199.461,331.94948 199.70021,331.21875 C 199.93129,330.52177 200.1464,329.81799 200.38771,329.125 C 200.62782,328.49718 200.82301,327.86578 201.10646,327.25 C 201.2823,326.83712 201.4164,326.36227 201.63771,326 C 201.91349,325.34611 202.14478,324.81491 202.29396,324.46875 C 202.65726,323.80807 202.88383,323.05411 203.38771,322.46875 C 203.73013,322.03097 204.00477,321.53993 204.41896,321.15625 C 204.68548,320.78687 204.90032,320.40534 205.20021,320.0625 C 205.86223,319.49748 206.43899,318.81023 207.20021,318.375 C 207.30147,318.30756 208.05641,317.801 208.35646,317.59375 C 208.5978,317.46051 208.80027,317.16728 209.07521,317.1875 C 209.31601,317.01433 209.55156,316.86069 209.79396,316.6875 C 210.07234,312.75665 210.41818,308.71824 210.63771,304.5625 C 211.04978,299.63032 211.37114,294.94743 211.79396,290.1875 C 212.14341,286.37791 212.73212,282.18678 212.79396,277.625 C 212.80512,277.48935 212.81329,277.29401 212.82521,277.15625 C 213.05371,274.51426 213.40733,271.54691 213.23146,268.15625 L 213.23146,267.65625 L 213.10646,267.125 C 212.77952,265.68012 212.6025,264.31156 211.13771,262.21875 C 209.8794,260.42095 206.98787,258.88154 204.70021,258.15625 L 204.70021,257.0625 C 200.0494,256.21682 198.74514,255.01014 193.07521,255.28125 C 190.6723,255.39615 187.6838,256.6048 185.82521,257.84375 C 185.90606,255.97803 186.00473,254.17927 186.20021,252.46875 L 186.26271,252.125 L 186.26271,251.75 C 186.24899,249.73675 186.77937,246.48005 185.48146,242.34375 L 185.45021,242.21875 L 185.35646,242.0625 C 184.99396,241.08329 184.59652,240.17229 184.10646,239.3125 L 184.35646,237.84375 L 182.91896,237.625 C 181.51268,235.80311 179.66571,234.19172 176.91896,232.75 C 175.13423,231.81324 172.50994,230.87836 169.45021,230.90625 z M 222.85646,422.78125 C 222.88324,422.78473 222.92863,422.77612 222.95021,422.78125 C 222.89217,422.87844 222.82086,422.96563 222.76271,423.0625 C 222.78992,422.96759 222.82981,422.87629 222.85646,422.78125 z "
       id="path1879" />
    <path
       style="fill:black;fill-opacity:1;fill-rule:nonzero;stroke:none;stroke-width:15;stroke-linecap:round;stroke-miterlimit:4;stroke-dasharray:none;stroke-dashoffset:14;stroke-opacity:1"
       id="path3840"
       d="M 232.59959,219.97123 C 232.10613,219.91712 231.61756,219.82175 231.12717,219.7471 C 228.74273,219.33809 234.59879,219.7603 235.75986,219.7895 C 236.09711,220.25557 236.12034,220.86873 236.29628,221.3955 C 236.49062,222.2515 236.7377,223.09406 236.95345,223.94242 C 237.28029,225.19041 237.77417,226.38423 238.2387,227.58 C 238.95484,229.20386 239.72899,230.7985 240.47636,232.40778 C 241.3701,234.45258 242.53713,236.32268 243.78372,238.1647 C 245.19763,240.46566 247.0699,242.42112 248.95229,244.33777 C 251.22736,246.68087 253.82516,248.6475 256.41266,250.62148 C 259.19484,252.73214 262.16099,254.56876 265.14997,256.36525 C 267.94508,257.98617 270.83677,259.4228 273.74024,260.83563 C 276.07685,261.9571 278.40532,263.09636 280.71904,264.26474 C 282.39038,264.90206 283.94312,265.77438 285.49076,266.65804 C 287.30593,267.88831 288.53682,269.4899 289.6091,271.35274 C 290.57268,273.21096 290.44812,275.21937 290.49071,277.24075 C 290.4016,279.30414 290.09138,281.35902 289.87797,283.41602 C 289.50127,285.8457 289.15541,288.27605 288.85188,290.71672 C 288.42425,293.55244 288.17691,296.40749 287.94335,299.26072 C 287.69305,302.31302 287.8439,305.38661 287.95044,308.44288 C 288.11737,311.63843 288.62655,314.78752 289.16965,317.93577 C 289.64336,321.06915 290.67935,324.07002 291.68732,327.06001 C 292.89163,330.25733 294.37319,333.33935 295.84723,336.41827 C 297.35912,339.50638 298.98072,342.53695 300.5237,345.60961 C 301.79814,348.05175 302.92911,350.56251 304.07638,353.06462 C 304.87551,354.62621 305.51663,356.25668 306.2302,357.85322 C 306.70171,358.78776 307.09949,359.7537 307.51325,360.71403 C 308.35552,363.12666 307.874,365.17915 306.99064,367.4585 C 306.23606,368.88185 305.22973,370.12563 304.23675,371.38539 C 303.12511,373.10314 301.71096,374.60183 300.33737,376.1115 C 298.78386,377.96467 297.14545,379.74386 295.50158,381.516 C 293.86137,383.03996 292.46511,384.78517 291.1071,386.55768 C 289.69541,388.32635 288.54012,390.27114 287.35466,392.19213 C 286.08319,394.09927 285.00529,396.10398 284.00289,398.16132 C 283.06579,400.05016 282.3044,402.02197 281.48551,403.96387 C 280.79222,405.51514 280.33905,407.15579 279.88359,408.78623 C 279.51167,410.09425 279.31627,411.42921 279.07277,412.76294 C 278.95269,413.69628 278.89793,414.64394 278.81885,415.57071 C 278.62812,416.21319 278.8239,416.84857 278.82639,417.48009 C 278.95141,418.10615 279.01884,418.75311 279.11206,419.36977 C 279.32455,419.88265 279.42887,420.60874 279.53838,421.03697 C 279.50161,421.41742 279.71152,421.75812 279.79814,422.11891 C 280.47838,423.69868 279.966,425.02403 279.68814,426.56683 C 279.06176,428.54555 277.46383,429.19271 275.89729,430.17363 C 274.8126,430.61939 273.84141,431.28098 272.83895,431.87617 C 271.44323,432.54749 270.18324,433.49811 268.90322,434.35157 C 267.35973,435.30735 266.01748,436.55772 264.64327,437.73011 C 263.27296,438.93319 262.00011,440.21695 260.73524,441.52866 C 259.80208,442.57221 258.66307,443.43192 257.65729,444.33993 C 256.8469,444.68922 256.11339,444.12445 255.34145,444.01671 L 250.60274,440.51372 C 250.30748,439.76537 249.47289,439.19504 249.71695,438.26865 C 250.59946,436.72771 251.4903,435.21296 252.80562,433.92199 C 254.32572,432.3749 255.76961,430.75888 257.45419,429.38873 C 259.17022,427.94943 260.92014,426.54184 262.72984,425.2087 C 264.46045,424.1015 266.21275,423.04324 268.07469,422.17073 C 269.32639,421.69967 270.57725,421.13203 271.89431,420.8771 C 271.43973,421.57579 270.83393,422.19679 270.53057,422.97319 C 270.50968,423.59768 269.98359,425.39425 270.39476,425.45422 C 270.16536,424.87657 269.95599,424.29491 269.70882,423.72697 C 269.54249,422.96724 269.32034,422.2332 269.21192,421.45736 C 269.04159,420.57279 268.79596,419.72695 268.70392,418.8192 C 268.61269,417.69174 268.47254,416.58183 268.43986,415.44502 C 268.41298,414.13894 268.30945,412.81321 268.51159,411.50573 C 268.7366,409.73991 268.89393,407.95749 269.35083,406.22959 C 269.85979,404.19564 270.30925,402.1369 270.99378,400.14604 C 271.83078,397.76597 272.66522,395.38863 273.76434,393.11226 C 274.98753,390.7586 276.22152,388.40657 277.62201,386.15122 C 279.04747,383.91398 280.4994,381.69425 282.10855,379.58298 C 283.74332,377.57552 285.38413,375.57521 287.12699,373.66123 C 288.73062,371.95367 290.3364,370.24714 291.97249,368.57053 C 293.12458,367.27952 294.22664,365.95103 295.38633,364.66973 C 295.90896,363.91822 296.42714,363.15482 296.88717,362.37814 C 296.82444,363.27039 296.41371,364.20633 296.83228,365.1223 C 296.43334,364.45484 295.94224,363.83253 295.62972,363.11031 C 294.83547,361.67781 293.98947,360.27673 293.17594,358.85158 C 291.74624,356.50462 290.27872,354.17678 288.98462,351.75016 C 287.22926,348.60484 285.55223,345.41665 283.97001,342.18083 C 282.28604,338.66308 280.58646,335.14916 279.30923,331.45625 C 278.05047,327.76905 276.87512,324.06442 276.22509,320.21038 C 275.63411,316.46633 275.02123,312.70824 274.95078,308.90851 C 274.85843,305.28778 274.8299,301.67393 275.25737,298.0654 C 275.66188,294.92391 276.09092,291.77864 276.78366,288.68604 C 277.3576,286.12006 277.93328,283.55444 278.60368,281.01195 C 279.14214,279.33531 279.6935,277.6704 280.18947,275.98167 C 280.41023,275.46338 280.37662,274.80139 280.84372,274.44565 C 280.91919,274.37228 281.86733,274.55103 281.05254,274.24265 C 279.78278,273.62624 278.49705,272.97853 277.1676,272.45548 C 274.68009,271.54121 272.21091,270.57929 269.75706,269.57789 C 266.50419,268.13705 263.23444,266.72271 260.16245,264.91321 C 256.79957,262.94906 253.44828,260.95808 250.37796,258.54693 C 247.39251,256.17142 244.40115,253.78212 241.85785,250.9185 C 239.71562,248.34209 237.54288,245.79114 235.95006,242.81308 C 234.78861,240.50025 233.5609,238.20883 232.59015,235.80907 C 231.8755,233.89535 231.14372,231.99057 230.73651,229.97987 C 230.4025,228.40138 229.94821,226.8088 229.83469,225.18144 C 229.78326,223.92406 229.60097,222.63118 229.91249,221.3955 C 230.08843,220.86873 230.11166,220.25557 230.44891,219.7895 C 231.60998,219.7603 237.46604,219.33809 235.0816,219.7471 C 234.59121,219.82175 234.10264,219.91712 233.60918,219.97123 L 232.59959,219.97123 z " />
  </g>
</svg>
