<?xml version="1.0" encoding="UTF-8" standalone="no"?>
<!-- Created with Inkscape (http://www.inkscape.org/) -->
<svg
   xmlns:dc="http://purl.org/dc/elements/1.1/"
   xmlns:cc="http://web.resource.org/cc/"
   xmlns:rdf="http://www.w3.org/1999/02/22-rdf-syntax-ns#"
   xmlns:svg="http://www.w3.org/2000/svg"
   xmlns="http://www.w3.org/2000/svg"
   xmlns:sodipodi="http://sodipodi.sourceforge.net/DTD/sodipodi-0.dtd"
   xmlns:inkscape="http://www.inkscape.org/namespaces/inkscape"
   width="744.09448819"
   height="1052.3622047"
   id="svg2"
   sodipodi:version="0.32"
   inkscape:version="0.44.1"
   sodipodi:docbase="C:\Program Files\Vstplugins\_devs\PIZ\MidiPadIcons"
   sodipodi:docname="9.svg">
  <defs
     id="defs4" />
  <sodipodi:namedview
     id="base"
     pagecolor="#ffffff"
     bordercolor="#666666"
     borderopacity="1.0"
     gridtolerance="10000"
     guidetolerance="10"
     objecttolerance="10"
     inkscape:pageopacity="0.0"
     inkscape:pageshadow="2"
     inkscape:zoom="0.98994949"
     inkscape:cx="534.74013"
     inkscape:cy="634.23228"
     inkscape:document-units="px"
     inkscape:current-layer="layer1"
     inkscape:window-width="1280"
     inkscape:window-height="977"
     inkscape:window-x="-4"
     inkscape:window-y="-4" />
  <metadata
     id="metadata7">
    <rdf:RDF>
      <cc:Work
         rdf:about="">
        <dc:format>image/svg+xml</dc:format>
        <dc:type
           rdf:resource="http://purl.org/dc/dcmitype/StillImage" />
      </cc:Work>
    </rdf:RDF>
  </metadata>
  <g
     inkscape:label="Layer 1"
     inkscape:groupmode="layer"
     id="layer1">
    <path
       style="fill:black;fill-opacity:1;fill-rule:nonzero;stroke:none;stroke-width:10;stroke-linecap:round;stroke-miterlimit:4;stroke-dashoffset:14;stroke-opacity:1"
       d="M 305.0625 191.71875 C 201.90572 191.71875 118.1875 275.43698 118.1875 378.59375 C 118.1875 481.75053 201.90572 565.46876 305.0625 565.46875 C 408.21928 565.46875 491.93752 481.75053 491.9375 378.59375 C 491.9375 275.43698 408.21928 191.71875 305.0625 191.71875 z M 305.0625 238.0625 C 382.56408 238.0625 445.59375 301.09219 445.59375 378.59375 C 445.59377 456.09533 382.56409 519.125 305.0625 519.125 C 227.56093 519.125 164.53125 456.09533 164.53125 378.59375 C 164.53125 301.09219 227.56094 238.0625 305.0625 238.0625 z M 305.0625 253.03125 C 235.67687 253.03125 179.5 309.20813 179.5 378.59375 C 179.5 447.97939 235.67688 504.15626 305.0625 504.15625 C 374.44814 504.15625 430.625 447.97939 430.625 378.59375 C 430.625 309.20813 374.44815 253.03124 305.0625 253.03125 z M 305.0625 299.84375 C 348.44899 299.84375 383.8125 335.20725 383.8125 378.59375 C 383.81251 421.98024 348.44899 457.34376 305.0625 457.34375 C 261.676 457.34375 226.3125 421.98023 226.3125 378.59375 C 226.3125 335.20726 261.676 299.84376 305.0625 299.84375 z M 305.0625 314.84375 C 269.79195 314.84375 241.3125 343.32319 241.3125 378.59375 C 241.3125 413.8643 269.79195 442.34377 305.0625 442.34375 C 340.33305 442.34375 368.81249 413.86429 368.8125 378.59375 C 368.8125 343.3232 340.33305 314.84375 305.0625 314.84375 z "
       id="path1874" />
  </g>
</svg>
